Coordinates
nRows=10
nColumns=38

# SIMM Motion File Header:
name Coordinates
datacolumns 38
datarows 10
otherdata 1
range 0.39411999999999997000 0.40311999999999998000

Units are S.I. units (second, meters, Newtons, ...)
Angles are in degrees.

endheader
time	pelvis_tilt	pelvis_list	pelvis_rotation	pelvis_tx	pelvis_ty	pelvis_tz	hip_flexion_r	hip_adduction_r	hip_rotation_r	knee_angle_r	ankle_angle_r	subtalar_angle_r	mtp_angle_r	hip_flexion_l	hip_adduction_l	hip_rotation_l	knee_angle_l	ankle_angle_l	subtalar_angle_l	mtp_angle_l	lumbar_extension	lumbar_bending	lumbar_rotation	arm_flex_r	arm_add_r	arm_rot_r	elbow_flex_r	pro_sup_r	wrist_flex_r	wrist_dev_r	arm_flex_l	arm_add_l	arm_rot_l	elbow_flex_l	pro_sup_l	wrist_flex_l	wrist_dev_l
      0.39411999999999997000	      2.82159076474472710000	     -2.72334117254397910000	     -4.42215941030950520000	      0.47865996849308690000	      0.96237015702299844000	     -0.31595511268345761000	      7.61073192760640000000	      8.77333139623772770000	      4.20393255016447220000	    -36.98805695628843900000	     22.48680701850815600000	     -0.00000000000000226663	      0.00000000000000365684	     27.24918698594174800000	     -1.00686641168182730000	      1.04300852594940570000	    -88.14360247221854600000	      5.62877288689152430000	     -0.00000000000000065209	     -0.00000000000000661958	    -18.41033847474768600000	      4.17179258430948610000	      5.56944491607133240000	     -5.50899377151310170000	    -31.74129864808943700000	      0.76149837694377853000	    112.20761693975614000000	     71.21634491822676700000	     -0.00000000000000065120	      0.00000000000001086489	    -28.82518665995881700000	    -18.14390604431531900000	     -2.38830066894294870000	    118.83726537174233000000	     95.93007498358383600000	     -0.00000000000000187238	     -0.00000000000000035303
      0.39511999999999997000	      2.81187432020962370000	     -2.66853987807559270000	     -4.40373897308389670000	      0.47865366582402302000	      0.96279866812716253000	     -0.31591388390740538000	      7.38177483213932460000	      8.69918781411372780000	      4.22534007373747400000	    -36.77893593797205800000	     22.45559841938950300000	     -0.00000000000000240631	      0.00000000000000348550	     27.38672806651190300000	     -0.93112317333061789000	      1.09226742984167410000	    -87.94878432176027200000	      5.67395720737515590000	     -0.00000000000000065576	     -0.00000000000000666628	    -18.39156464723431100000	      4.11124391138440530000	      5.63425465437866710000	     -5.46460488107063290000	    -31.69281500603778000000	      0.82761125421517268000	    112.28288080000043000000	     71.23301260587213300000	     -0.00000000000000065992	      0.00000000000001113277	    -28.89458510361889100000	    -18.16557666907643700000	     -2.39636914783704210000	    118.92732837099919000000	     95.83152101641715600000	     -0.00000000000000186605	     -0.00000000000000037703
      0.39611999999999997000	      2.80189468048743610000	     -2.61247969423659090000	     -4.38440935983994610000	      0.47865188883275056000	      0.96323552437165660000	     -0.31587384269190627000	      7.15131478128686910000	      8.62353440724324650000	      4.24652080108442310000	    -36.56585519882229800000	     22.42093731102906400000	     -0.00000000000000254773	      0.00000000000000333554	     27.52138542156970400000	     -0.85391882723584411000	      1.14105131673717740000	    -87.74701391435972700000	      5.71884829436614160000	     -0.00000000000000065439	     -0.00000000000000671632	    -18.37189950872410200000	      4.04932567126083230000	      5.69699665708109840000	     -5.42049567959668900000	    -31.64477210104964300000	      0.89649180604300438000	    112.35856637123715000000	     71.24954009809751200000	     -0.00000000000000066796	      0.00000000000001140305	    -28.96446806157742400000	    -18.18846603342309000000	     -2.40396732210407070000	    119.01852252963448000000	     95.73444336548369900000	     -0.00000000000000185973	     -0.00000000000000040069
      0.39711999999999997000	      2.79166514830975120000	     -2.55519802208724610000	     -4.36420420316430220000	      0.47865460744158050000	      0.96368057413685959000	     -0.31583495328336253000	      6.91940886745954130000	      8.54643576730507700000	      4.26750104760606950000	    -36.34895772847988100000	     22.38275520222226000000	     -0.00000000000000269124	      0.00000000000000321881	     27.65312068118273500000	     -0.77530796171475336000	      1.18934394193272810000	    -87.53834082579611200000	      5.76338871801445050000	     -0.00000000000000065098	     -0.00000000000000677445	    -18.35136909893704500000	      3.98606878439611110000	      5.75770563151163820000	     -5.37664662490455750000	    -31.59717739292002700000	      0.96813857706980511000	    112.43459817423420000000	     71.26589535888413700000	     -0.00000000000000067568	      0.00000000000001167872	    -29.03479188972095300000	    -18.21254998615084700000	     -2.41111598676525980000	    119.11072554496346000000	     95.63903694324913800000	     -0.00000000000000185370	     -0.00000000000000042647
      0.39811999999999997000	      2.78119984038565790000	     -2.49673379796413060000	     -4.34315439987590500000	      0.47866178975721768000	      0.96413366450440097000	     -0.31579718126100953000	      6.68611461464010230000	      8.46795775859759560000	      4.28830480966174130000	    -36.12839020098596200000	     22.34098270887851700000	     -0.00000000000000282312	      0.00000000000000311359	     27.78189645746726900000	     -0.69534587501369549000	      1.23713324568809720000	    -87.32281664295325600000	      5.80751963034438920000	     -0.00000000000000064725	     -0.00000000000000683923	    -18.33000046461388900000	      3.92150647814131670000	      5.81641730300621960000	     -5.33304457436709980000	    -31.55003658011700900000	      1.04254152693294990000	    112.51090498674462000000	     71.28204745006334500000	     -0.00000000000000068314	      0.00000000000001195097	    -29.10551170338816400000	    -18.23780665709441700000	     -2.41783442794758850000	    119.20381817280972000000	     95.54547879042857500000	     -0.00000000000000185109	     -0.00000000000000045335
      0.39911999999999997000	      2.77051356164955860000	     -2.43712733161243110000	     -4.32128818133062250000	      0.47867340232487948000	      0.96459464118698235000	     -0.31576049361788144000	      6.45148981031620040000	      8.38816723313964730000	      4.30895350544050170000	    -35.90430228647874600000	     22.29554854541862200000	     -0.00000000000000295813	      0.00000000000000303432	     27.90767642828938500000	     -0.61408837532377225000	      1.28441122883108120000	    -87.10049476247581900000	      5.85118139774151390000	     -0.00000000000000063846	     -0.00000000000000689562	    -18.30782147467198200000	      3.85567412887580470000	      5.87316830574860300000	     -5.28968254158460470000	    -31.50335376377907100000	      1.11968234956819850000	    112.58741979493526000000	     71.29796692987071100000	     -0.00000000000000069174	      0.00000000000001223112	    -29.17658157347952000000	    -18.26421632288716900000	     -2.42414047429406710000	    119.29768432948192000000	     95.45392768406051700000	     -0.00000000000000184895	     -0.00000000000000048011
      0.40011999999999998000	      2.75962126472916270000	     -2.37641911506443470000	     -4.29863956155529440000	      0.47868940887988481000	      0.96506334859380505000	     -0.31572484749396201000	      6.21559399961506200000	      8.30713173031281470000	      4.32947373782999190000	    -35.67684898094868400000	     22.24637947336649200000	     -0.00000000000000310126	      0.00000000000000299530	     28.03042414351480000000	     -0.53159465453179444000	      1.33116595273284540000	    -86.87142900677902400000	      5.89431554069302340000	     -0.00000000000000063123	     -0.00000000000000694915	    -18.28486066788813200000	      3.78860573244222110000	      5.92800367336344620000	     -5.24655941590529020000	    -31.45713195001303900000	      1.19953482926517640000	    112.66407975177594000000	     71.31362611495410400000	     -0.00000000000000070051	      0.00000000000001250762	    -29.24795466835637100000	    -18.29176090105598700000	     -2.43005044499724040000	    119.39221095588134000000	     95.36452394345325000000	     -0.00000000000000183962	     -0.00000000000000050437
      0.40111999999999998000	      2.74853739332055900000	     -2.31464832638074820000	     -4.27525952160143330000	      0.47870976858283282000	      0.96553963010034127000	     -0.31569017516188475000	      5.97849059685392880000	      8.22491903825370580000	      4.34990769639191390000	    -35.44619405324660700000	     22.19340139337067400000	     -0.00000000000000323291	      0.00000000000000295738	     28.15010146107392000000	     -0.44793128361351731000	      1.37737101951160600000	    -86.63567187688181500000	      5.93686712822071620000	     -0.00000000000000063167	     -0.00000000000000701798	    -18.26114709894303400000	      3.72032931536717860000	      5.98098682603875890000	     -5.20367965052353920000	    -31.41137366668318600000	      1.28206521672454300000	    112.74082613115979000000	     71.32899928779650600000	     -0.00000000000000070967	      0.00000000000001277971	    -29.31958335628553400000	    -18.32042331817977000000	     -2.43557905679522910000	    119.48728778640084000000	     95.27738936494650100000	     -0.00000000000000183009	     -0.00000000000000052961
      0.40211999999999998000	      2.73727884609841700000	     -2.25186042434460050000	     -4.25115317650427920000	      0.47873444745872273000	      0.96602332768642019000	     -0.31565646923540064000	      5.74023437625260510000	      8.14159740892720580000	      4.37025267196755430000	    -35.21248761630564400000	     22.13654062589879600000	     -0.00000000000000339253	      0.00000000000000294596	     28.26667817355968600000	     -0.36314887246956340000	      1.42304449846580970000	    -86.39328324195442100000	      5.97877549271027140000	     -0.00000000000000062847	     -0.00000000000000708688	    -18.23670995235105600000	      3.65089208717443640000	      6.03214238113743750000	     -5.16105325407954660000	    -31.36607859948001900000	      1.36723232067052300000	    112.81760422680323000000	     71.34406403704341000000	     -0.00000000000000071857	      0.00000000000001305186	    -29.39141979773050300000	    -18.35019018537992600000	     -2.44074026598628050000	    119.58280923455975000000	     95.19262574116560000000	     -0.00000000000000181169	     -0.00000000000000055661
      0.40311999999999998000	      2.72586278535656050000	     -2.18810157385678310000	     -4.22632375936269700000	      0.47876341071532730000	      0.96651428231202652000	     -0.31562372343150757000	      5.50087978390653910000	      8.05723533528460400000	      4.39050279049485240000	    -34.97588070717999600000	     22.07572224052695700000	     -0.00000000000000354924	      0.00000000000000295143	     28.38012517465594400000	     -0.27729784947863800000	      1.46820741764108550000	    -86.14432390923106200000	      6.01998155546727260000	     -0.00000000000000061734	     -0.00000000000000716341	    -18.21157872409218500000	      3.58034257446578910000	      6.08149582498984120000	     -5.11869523071222600000	    -31.32124555375384700000	      1.45498814449645850000	    112.89436328703624000000	     71.35880074207112500000	     -0.00000000000000072670	      0.00000000000001332830	    -29.46341580518640400000	    -18.38104968141450600000	     -2.44554678272971280000	    119.67867318932612000000	     95.11031640520482700000	     -0.00000000000000179499	     -0.00000000000000058441
